<svg xmlns="http://www.w3.org/2000/svg" xmlns:xlink="http://www.w3.org/1999/xlink" contentStyleType="text/css" data-diagram-type="CLASS" height="1304px" preserveAspectRatio="none" style="width:669px;height:1304px;background:#FFFFFF;" version="1.1" viewBox="0 0 669 1304" width="669px" zoomAndPan="magnify"><defs/><g><!--cluster tcp--><g class="cluster" data-entity="tcp" data-source-line="1" data-uid="ent0003" id="cluster_tcp"><path d="M8.5,6.602 L31.6479,6.602 A3.75,3.75 0 0 1 34.1479,9.102 L41.1479,31.6699 L659.5,31.6699 A2.5,2.5 0 0 1 662,34.1699 L662,898.262 A2.5,2.5 0 0 1 659.5,900.762 L8.5,900.762 A2.5,2.5 0 0 1 6,898.262 L6,9.102 A2.5,2.5 0 0 1 8.5,6.602" fill="none" style="stroke:#000000;stroke-width:1.5;"/><line style="stroke:#000000;stroke-width:1.5;" x1="6" x2="41.1479" y1="31.6699" y2="31.6699"/><text fill="#000000" font-family="sans-serif" font-size="14" font-weight="bold" lengthAdjust="spacing" textLength="22.1479" x="10" y="23.5679">tcp</text></g><!--cluster dsp--><g class="cluster" data-entity="dsp" data-source-line="60" data-uid="ent0011" id="cluster_dsp"><path d="M162.5,933.762 L188.2239,933.762 A3.75,3.75 0 0 1 190.7239,936.262 L197.7239,958.8299 L509.5,958.8299 A2.5,2.5 0 0 1 512,961.3299 L512,1294.552 A2.5,2.5 0 0 1 509.5,1297.052 L162.5,1297.052 A2.5,2.5 0 0 1 160,1294.552 L160,936.262 A2.5,2.5 0 0 1 162.5,933.762" fill="none" style="stroke:#000000;stroke-width:1.5;"/><line style="stroke:#000000;stroke-width:1.5;" x1="160" x2="197.7239" y1="958.8299" y2="958.8299"/><text fill="#000000" font-family="sans-serif" font-size="14" font-weight="bold" lengthAdjust="spacing" textLength="24.7239" x="164" y="950.7279">dsp</text></g><!--class net_config--><g class="entity" data-entity="net_config" data-source-line="1" data-uid="ent0002" id="entity_net_config"><rect fill="#F1F1F1" height="86.1358" rx="2.5" ry="2.5" style="stroke:#181818;stroke-width:0.5;" width="100.6977" x="205.65" y="143.532"/><ellipse cx="220.65" cy="159.532" fill="#F1F1F1" rx="11" ry="11" style="stroke:#181818;stroke-width:1;"/><path d="M220.3219,166.2039 Q219.4,166.2039 218.5094,166.032 Q217.6188,165.8445 216.8375,165.4695 L216.8375,163.2195 Q217.7906,163.7039 218.6656,163.9382 Q219.5563,164.157 220.4,164.157 Q221.275,164.157 221.8375,163.8601 Q222.4,163.5632 222.4,162.782 Q222.4,162.2351 222.1031,161.9382 Q221.8063,161.6257 221.2438,161.3445 Q220.6813,161.0632 219.9,160.657 Q219.1188,160.2351 218.4625,159.7507 Q217.8219,159.2507 217.4469,158.5789 Q217.0719,157.907 217.0719,156.9539 Q217.0719,155.3289 218.1656,154.532 Q219.275,153.7195 221.0563,153.7195 Q221.775,153.7195 222.7594,153.8914 Q223.7438,154.0476 224.6969,154.5007 L223.9156,156.4226 Q223.0719,156.0632 222.3844,155.9226 Q221.7125,155.7664 221.1969,155.7664 Q220.3531,155.7664 219.9625,156.1101 Q219.5875,156.4382 219.5875,157.0789 Q219.5875,157.5632 219.8219,157.8757 Q220.0719,158.1726 220.5406,158.4226 Q221.025,158.6726 221.7594,159.0476 Q222.7594,159.532 223.4625,160.0007 Q224.1656,160.4695 224.5406,161.0945 Q224.9156,161.7039 224.9156,162.6414 Q224.9156,163.8289 224.3375,164.6257 Q223.775,165.407 222.7281,165.8132 Q221.6969,166.2039 220.3219,166.2039 Z " fill="#000000"/><text fill="#000000" font-family="sans-serif" font-size="14" lengthAdjust="spacing" textLength="68.6977" x="234.65" y="164.964">net_config</text><line style="stroke:#181818;stroke-width:0.5;" x1="206.65" x2="305.3477" y1="175.532" y2="175.532"/><text fill="#000000" font-family="sans-serif" font-size="14" lengthAdjust="spacing" textLength="74.6897" x="211.65" y="194.4979">host: string</text><text fill="#000000" font-family="sans-serif" font-size="14" lengthAdjust="spacing" textLength="52.6258" x="211.65" y="213.5658">port: int</text><line style="stroke:#181818;stroke-width:0.5;" x1="206.65" x2="305.3477" y1="221.6678" y2="221.6678"/></g><!--class server_metrics--><g class="entity" data-entity="server_metrics" data-source-line="6" data-uid="ent0004" id="entity_server_metrics"><rect fill="#F1F1F1" height="99.5479" rx="2.5" ry="2.5" style="stroke:#181818;stroke-width:0.5;" width="131.1815" x="514.41" y="772.852"/><ellipse cx="530.7293" cy="795.558" fill="#F1F1F1" rx="11" ry="11" style="stroke:#181818;stroke-width:1;"/><path d="M530.4012,802.2299 Q529.4793,802.2299 528.5887,802.058 Q527.6981,801.8705 526.9168,801.4955 L526.9168,799.2455 Q527.87,799.7299 528.745,799.9642 Q529.6356,800.183 530.4793,800.183 Q531.3543,800.183 531.9168,799.8861 Q532.4793,799.5892 532.4793,798.808 Q532.4793,798.2611 532.1825,797.9642 Q531.8856,797.6517 531.3231,797.3705 Q530.7606,797.0892 529.9793,796.683 Q529.1981,796.2611 528.5418,795.7767 Q527.9012,795.2767 527.5262,794.6049 Q527.1512,793.933 527.1512,792.9799 Q527.1512,791.3549 528.245,790.558 Q529.3543,789.7455 531.1356,789.7455 Q531.8543,789.7455 532.8387,789.9174 Q533.8231,790.0736 534.7762,790.5267 L533.995,792.4486 Q533.1512,792.0892 532.4637,791.9486 Q531.7918,791.7924 531.2762,791.7924 Q530.4325,791.7924 530.0418,792.1361 Q529.6668,792.4642 529.6668,793.1049 Q529.6668,793.5892 529.9012,793.9017 Q530.1512,794.1986 530.62,794.4486 Q531.1043,794.6986 531.8387,795.0736 Q532.8387,795.558 533.5418,796.0267 Q534.245,796.4955 534.62,797.1205 Q534.995,797.7299 534.995,798.6674 Q534.995,799.8549 534.4168,800.6517 Q533.8543,801.433 532.8075,801.8392 Q531.7762,802.2299 530.4012,802.2299 Z " fill="#000000"/><text fill="#000000" font-family="sans-serif" font-size="12" font-style="italic" lengthAdjust="spacing" textLength="48.0363" x="569.1292" y="790.6801">&#171;atomic&#187;</text><text fill="#000000" font-family="sans-serif" font-size="14" lengthAdjust="spacing" textLength="96.2496" x="545.0225" y="809.162">server_metrics</text><line style="stroke:#181818;stroke-width:0.5;" x1="515.41" x2="644.5915" y1="818.264" y2="818.264"/><text fill="#000000" font-family="sans-serif" font-size="14" lengthAdjust="spacing" textLength="119.1815" x="520.41" y="837.2299">n_connections: int</text><text fill="#000000" font-family="sans-serif" font-size="14" lengthAdjust="spacing" textLength="65.2817" x="520.41" y="856.2979">buffer: int</text><line style="stroke:#181818;stroke-width:0.5;" x1="515.41" x2="644.5915" y1="864.3998" y2="864.3998"/></g><!--class connection_info--><g class="entity" data-entity="connection_info" data-source-line="11" data-uid="ent0005" id="entity_connection_info"><rect fill="#F1F1F1" height="86.1358" rx="2.5" ry="2.5" style="stroke:#181818;stroke-width:0.5;" width="136.6636" x="21.67" y="779.552"/><ellipse cx="36.67" cy="795.552" fill="#F1F1F1" rx="11" ry="11" style="stroke:#181818;stroke-width:1;"/><path d="M36.3419,802.2239 Q35.42,802.2239 34.5294,802.052 Q33.6388,801.8645 32.8575,801.4895 L32.8575,799.2395 Q33.8106,799.7239 34.6856,799.9582 Q35.5763,800.177 36.42,800.177 Q37.295,800.177 37.8575,799.8801 Q38.42,799.5832 38.42,798.802 Q38.42,798.2551 38.1231,797.9582 Q37.8263,797.6457 37.2638,797.3645 Q36.7013,797.0832 35.92,796.677 Q35.1388,796.2551 34.4825,795.7707 Q33.8419,795.2707 33.4669,794.5989 Q33.0919,793.927 33.0919,792.9739 Q33.0919,791.3489 34.1856,790.552 Q35.295,789.7395 37.0763,789.7395 Q37.795,789.7395 38.7794,789.9114 Q39.7638,790.0676 40.7169,790.5207 L39.9356,792.4426 Q39.0919,792.0832 38.4044,791.9426 Q37.7325,791.7864 37.2169,791.7864 Q36.3731,791.7864 35.9825,792.1301 Q35.6075,792.4582 35.6075,793.0989 Q35.6075,793.5832 35.8419,793.8957 Q36.0919,794.1926 36.5606,794.4426 Q37.045,794.6926 37.7794,795.0676 Q38.7794,795.552 39.4825,796.0207 Q40.1856,796.4895 40.5606,797.1145 Q40.9356,797.7239 40.9356,798.6614 Q40.9356,799.8489 40.3575,800.6457 Q39.795,801.427 38.7481,801.8332 Q37.7169,802.2239 36.3419,802.2239 Z " fill="#000000"/><text fill="#000000" font-family="sans-serif" font-size="14" lengthAdjust="spacing" textLength="104.6636" x="50.67" y="800.984">connection_info</text><line style="stroke:#181818;stroke-width:0.5;" x1="22.67" x2="157.3336" y1="811.552" y2="811.552"/><text fill="#000000" font-family="sans-serif" font-size="14" lengthAdjust="spacing" textLength="97.9716" x="27.67" y="830.5179">address: string</text><text fill="#000000" font-family="sans-serif" font-size="14" lengthAdjust="spacing" textLength="52.6258" x="27.67" y="849.5858">port: int</text><line style="stroke:#181818;stroke-width:0.5;" x1="22.67" x2="157.3336" y1="857.6878" y2="857.6878"/></g><!--class handler--><g class="entity" data-entity="handler" data-source-line="16" data-uid="ent0006" id="entity_handler"><rect fill="#F1F1F1" height="124.2717" rx="2.5" ry="2.5" style="stroke:#181818;stroke-width:0.5;" width="286.203" x="192.9" y="760.482"/><ellipse cx="307.5316" cy="776.482" fill="#B4A7E5" rx="11" ry="11" style="stroke:#181818;stroke-width:1;"/><path d="M303.5628,782.982 L303.5628,781.2789 L305.9222,781.0132 L305.9222,772.8101 L303.5628,772.5445 L303.5628,770.8414 L310.7035,770.8414 L310.7035,772.5445 L308.2816,772.8101 L308.2816,781.0132 L310.7035,781.2789 L310.7035,782.982 L303.5628,782.982 Z " fill="#000000"/><text fill="#000000" font-family="sans-serif" font-size="14" font-style="italic" lengthAdjust="spacing" textLength="48.4398" x="328.0316" y="781.914">handler</text><line style="stroke:#181818;stroke-width:0.5;" x1="193.9" x2="478.103" y1="792.482" y2="792.482"/><line style="stroke:#181818;stroke-width:0.5;" x1="193.9" x2="478.103" y1="800.482" y2="800.482"/><text fill="#000000" font-family="sans-serif" font-size="14" font-style="italic" lengthAdjust="spacing" textLength="143.7794" x="198.9" y="819.4479">process(data_view) : int</text><text fill="#000000" font-family="sans-serif" font-size="14" font-style="italic" lengthAdjust="spacing" textLength="220.7512" x="198.9" y="838.5158">on_connection_init(connection_info)</text><text fill="#000000" font-family="sans-serif" font-size="14" font-style="italic" lengthAdjust="spacing" textLength="274.203" x="198.9" y="857.5838">on_error(boost::error_code, connection_info)</text><text fill="#000000" font-family="sans-serif" font-size="14" font-style="italic" lengthAdjust="spacing" textLength="263.1151" x="198.9" y="876.6517">on_error(nova::exception, connection_info)</text></g><!--class handler_factory--><g class="entity" data-entity="handler_factory" data-source-line="23" data-uid="ent0007" id="entity_handler_factory"><rect fill="#F1F1F1" height="67.0679" rx="2.5" ry="2.5" style="stroke:#181818;stroke-width:0.5;" width="129.3556" x="147.32" y="502.012"/><ellipse cx="162.32" cy="518.012" fill="#B4A7E5" rx="11" ry="11" style="stroke:#181818;stroke-width:1;"/><path d="M158.3513,524.512 L158.3513,522.8089 L160.7106,522.5432 L160.7106,514.3401 L158.3513,514.0745 L158.3513,512.3714 L165.4919,512.3714 L165.4919,514.0745 L163.07,514.3401 L163.07,522.5432 L165.4919,522.8089 L165.4919,524.512 L158.3513,524.512 Z " fill="#000000"/><text fill="#000000" font-family="sans-serif" font-size="14" font-style="italic" lengthAdjust="spacing" textLength="97.3556" x="176.32" y="523.444">handler_factory</text><line style="stroke:#181818;stroke-width:0.5;" x1="148.32" x2="275.6756" y1="534.012" y2="534.012"/><line style="stroke:#181818;stroke-width:0.5;" x1="148.32" x2="275.6756" y1="542.012" y2="542.012"/><text fill="#000000" font-family="sans-serif" font-size="14" font-style="italic" lengthAdjust="spacing" textLength="105.9096" x="153.32" y="560.9779">create() : handler</text></g><!--class server--><g class="entity" data-entity="server" data-source-line="29" data-uid="ent0008" id="entity_server"><rect fill="#F1F1F1" height="276.815" rx="2.5" ry="2.5" style="stroke:#181818;stroke-width:0.5;" width="190.5414" x="349" y="48.602"/><ellipse cx="419.4338" cy="64.602" fill="#ADD1B2" rx="11" ry="11" style="stroke:#181818;stroke-width:1;"/><path d="M418.9025,71.5239 Q417.1525,71.5239 416.0119,70.7895 Q414.8869,70.0395 414.3244,68.6957 Q413.7775,67.3364 413.7775,65.5395 Q413.7775,63.5082 414.4338,62.0551 Q415.09,60.602 416.3713,59.8207 Q417.6525,59.0395 419.5275,59.0395 Q420.4181,59.0395 421.09,59.227 Q421.7619,59.3989 422.4494,59.7426 L421.6369,61.7582 Q421.0119,61.4457 420.465,61.3207 Q419.9338,61.1957 419.4494,61.1957 Q418.2775,61.1957 417.5744,61.727 Q416.8713,62.2582 416.5744,63.2114 Q416.2775,64.1645 416.2775,65.4301 Q416.2775,67.4457 416.9963,68.4145 Q417.715,69.3676 419.3088,69.3676 Q419.9025,69.3676 420.5275,69.2114 Q421.1525,69.0551 421.9806,68.6801 L421.9806,70.8989 Q421.2463,71.2114 420.4494,71.3676 Q419.6681,71.5239 418.9025,71.5239 Z " fill="#000000"/><text fill="#000000" font-family="sans-serif" font-size="14" lengthAdjust="spacing" textLength="41.1738" x="439.9338" y="70.034">server</text><line style="stroke:#181818;stroke-width:0.5;" x1="350" x2="538.5414" y1="80.602" y2="80.602"/><ellipse cx="360" cy="95.6359" fill="#84BE84" rx="3" ry="3" style="stroke:#038048;stroke-width:1;"/><text fill="#000000" font-family="sans-serif" font-size="14" lengthAdjust="spacing" textLength="118.2715" x="369" y="99.5679">server(net_config)</text><text fill="#000000" font-family="sans-serif" font-size="14" lengthAdjust="spacing" textLength="3.64" x="369" y="118.6358">&#160;</text><ellipse cx="360" cy="133.7718" fill="#84BE84" rx="3" ry="3" style="stroke:#038048;stroke-width:1;"/><text fill="#000000" font-family="sans-serif" font-size="14" lengthAdjust="spacing" textLength="38.8499" x="369" y="137.7038">start()</text><ellipse cx="360" cy="152.8397" fill="#84BE84" rx="3" ry="3" style="stroke:#038048;stroke-width:1;"/><text fill="#000000" font-family="sans-serif" font-size="14" lengthAdjust="spacing" textLength="37.2399" x="369" y="156.7717">stop()</text><ellipse cx="360" cy="171.9076" fill="#84BE84" rx="3" ry="3" style="stroke:#038048;stroke-width:1;"/><text fill="#000000" font-family="sans-serif" font-size="14" lengthAdjust="spacing" textLength="73.8917" x="369" y="175.8396">set(factory)</text><rect fill="#F24D5C" height="6" style="stroke:#C82930;stroke-width:1;" width="6" x="357" y="187.9755"/><text fill="#000000" font-family="sans-serif" font-size="14" lengthAdjust="spacing" textLength="51.2538" x="369" y="194.9075">accept()</text><ellipse cx="360" cy="233.1114" fill="#84BE84" rx="3" ry="3" style="stroke:#038048;stroke-width:1;"/><text fill="#000000" font-family="sans-serif" font-size="14" lengthAdjust="spacing" textLength="64.6658" x="369" y="237.0433">port() : int</text><ellipse cx="360" cy="252.1793" fill="#84BE84" rx="3" ry="3" style="stroke:#038048;stroke-width:1;"/><text fill="#000000" font-family="sans-serif" font-size="14" lengthAdjust="spacing" textLength="164.5414" x="369" y="256.1113">metrics() : server_metrics</text><line style="stroke:#181818;stroke-width:1;stroke-dasharray:1.0,2.0;" x1="350" x2="410.5588" y1="212.5434" y2="212.5434"/><text fill="#000000" font-family="sans-serif" font-size="14" lengthAdjust="spacing" textLength="67.4238" x="410.5588" y="217.4754">Observers</text><line style="stroke:#181818;stroke-width:1;stroke-dasharray:1.0,2.0;" x1="477.9826" x2="538.5414" y1="212.5434" y2="212.5434"/><rect fill="none" height="6" style="stroke:#C82930;stroke-width:1;" width="6" x="357" y="291.3151"/><text fill="#000000" font-family="sans-serif" font-size="14" lengthAdjust="spacing" textLength="159.9774" x="369" y="298.2471">factory : handler_factory</text><rect fill="none" height="6" style="stroke:#C82930;stroke-width:1;" width="6" x="357" y="310.383"/><text fill="#000000" font-family="sans-serif" font-size="14" lengthAdjust="spacing" textLength="156.1414" x="369" y="317.315">metrics : server_metrics</text><line style="stroke:#181818;stroke-width:0.5;" x1="350" x2="412.9318" y1="273.7472" y2="273.7472"/><text fill="#000000" font-family="sans-serif" font-size="14" lengthAdjust="spacing" textLength="62.6778" x="412.9318" y="278.6792">Members</text><line style="stroke:#181818;stroke-width:0.5;" x1="475.6096" x2="538.5414" y1="273.7472" y2="273.7472"/></g><!--class connection--><g class="entity" data-entity="connection" data-source-line="44" data-uid="ent0009" id="entity_connection"><rect fill="#F1F1F1" height="291.8829" rx="2.5" ry="2.5" style="stroke:#181818;stroke-width:0.5;" width="264.3211" x="311.84" y="389.602"/><ellipse cx="403.3017" cy="405.602" fill="#ADD1B2" rx="11" ry="11" style="stroke:#181818;stroke-width:1;"/><path d="M402.7704,412.5239 Q401.0204,412.5239 399.8798,411.7895 Q398.7548,411.0395 398.1923,409.6957 Q397.6454,408.3364 397.6454,406.5395 Q397.6454,404.5082 398.3017,403.0551 Q398.9579,401.602 400.2392,400.8207 Q401.5204,400.0395 403.3954,400.0395 Q404.2861,400.0395 404.9579,400.227 Q405.6298,400.3989 406.3173,400.7426 L405.5048,402.7582 Q404.8798,402.4457 404.3329,402.3207 Q403.8017,402.1957 403.3173,402.1957 Q402.1454,402.1957 401.4423,402.727 Q400.7392,403.2582 400.4423,404.2114 Q400.1454,405.1645 400.1454,406.4301 Q400.1454,408.4457 400.8642,409.4145 Q401.5829,410.3676 403.1767,410.3676 Q403.7704,410.3676 404.3954,410.2114 Q405.0204,410.0551 405.8486,409.6801 L405.8486,411.8989 Q405.1142,412.2114 404.3173,412.3676 Q403.5361,412.5239 402.7704,412.5239 Z " fill="#000000"/><text fill="#000000" font-family="sans-serif" font-size="14" lengthAdjust="spacing" textLength="72.8977" x="423.8017" y="411.034">connection</text><line style="stroke:#181818;stroke-width:0.5;" x1="312.84" x2="575.1611" y1="421.602" y2="421.602"/><ellipse cx="322.84" cy="436.6359" fill="#84BE84" rx="3" ry="3" style="stroke:#038048;stroke-width:1;"/><text fill="#000000" font-family="sans-serif" font-size="14" lengthAdjust="spacing" textLength="238.3211" x="331.84" y="440.5679">connection(socket, handler, metrics)</text><ellipse cx="322.84" cy="455.7039" fill="#84BE84" rx="3" ry="3" style="stroke:#038048;stroke-width:1;"/><text fill="#000000" font-family="sans-serif" font-size="14" lengthAdjust="spacing" textLength="89.3056" x="331.84" y="459.6358">~connection()</text><text fill="#000000" font-family="sans-serif" font-size="14" lengthAdjust="spacing" textLength="3.64" x="331.84" y="478.7038">&#160;</text><ellipse cx="322.84" cy="493.8397" fill="#84BE84" rx="3" ry="3" style="stroke:#038048;stroke-width:1;"/><text fill="#000000" font-family="sans-serif" font-size="14" lengthAdjust="spacing" textLength="38.8499" x="331.84" y="497.7717">start()</text><ellipse cx="322.84" cy="512.9076" fill="#84BE84" rx="3" ry="3" style="stroke:#038048;stroke-width:1;"/><text fill="#000000" font-family="sans-serif" font-size="14" lengthAdjust="spacing" textLength="41.8038" x="331.84" y="516.8396">close()</text><ellipse cx="322.84" cy="531.9755" fill="#84BE84" rx="3" ry="3" style="stroke:#038048;stroke-width:1;"/><text fill="#000000" font-family="sans-serif" font-size="14" lengthAdjust="spacing" textLength="105.4756" x="331.84" y="535.9075">send(data_view)</text><text fill="#000000" font-family="sans-serif" font-size="14" lengthAdjust="spacing" textLength="3.64" x="331.84" y="554.9754">&#160;</text><rect fill="#F24D5C" height="6" style="stroke:#C82930;stroke-width:1;" width="6" x="319.84" y="567.1114"/><text fill="#000000" font-family="sans-serif" font-size="14" lengthAdjust="spacing" textLength="132.7895" x="331.84" y="574.0433">handle_connection()</text><rect fill="none" height="6" style="stroke:#C82930;stroke-width:1;" width="6" x="319.84" y="609.2472"/><text fill="#000000" font-family="sans-serif" font-size="14" lengthAdjust="spacing" textLength="42.3218" x="331.84" y="616.1792">socket</text><rect fill="none" height="6" style="stroke:#C82930;stroke-width:1;" width="6" x="319.84" y="628.3151"/><text fill="#000000" font-family="sans-serif" font-size="14" lengthAdjust="spacing" textLength="156.1414" x="331.84" y="635.2471">metrics : server_metrics</text><rect fill="none" height="6" style="stroke:#C82930;stroke-width:1;" width="6" x="319.84" y="647.383"/><text fill="#000000" font-family="sans-serif" font-size="14" lengthAdjust="spacing" textLength="104.6636" x="331.84" y="654.315">connection_info</text><rect fill="none" height="6" style="stroke:#C82930;stroke-width:1;" width="6" x="319.84" y="666.4509"/><text fill="#000000" font-family="sans-serif" font-size="14" lengthAdjust="spacing" textLength="51.0578" x="331.84" y="673.3829">handler</text><line style="stroke:#181818;stroke-width:0.5;" x1="312.84" x2="412.6616" y1="591.6793" y2="591.6793"/><text fill="#000000" font-family="sans-serif" font-size="14" lengthAdjust="spacing" textLength="62.6778" x="412.6616" y="596.6113">Members</text><line style="stroke:#181818;stroke-width:0.5;" x1="475.3394" x2="575.1611" y1="591.6793" y2="591.6793"/></g><!--class handler_frame--><g class="entity" data-entity="handler_frame" data-source-line="60" data-uid="ent0010" id="entity_handler_frame"><rect fill="#F1F1F1" height="309.295" rx="2.5" ry="2.5" style="stroke:#181818;stroke-width:0.5;" width="319.9429" x="176.03" y="971.762"/><ellipse cx="251.0209" cy="994.468" fill="#ADD1B2" rx="11" ry="11" style="stroke:#181818;stroke-width:1;"/><path d="M250.4896,1001.3899 Q248.7396,1001.3899 247.599,1000.6555 Q246.474,999.9055 245.9115,998.5617 Q245.3646,997.2024 245.3646,995.4055 Q245.3646,993.3742 246.0209,991.9211 Q246.6771,990.468 247.9584,989.6867 Q249.2396,988.9055 251.1146,988.9055 Q252.0053,988.9055 252.6771,989.093 Q253.349,989.2649 254.0365,989.6086 L253.224,991.6242 Q252.599,991.3117 252.0521,991.1867 Q251.5209,991.0617 251.0365,991.0617 Q249.8646,991.0617 249.1615,991.593 Q248.4584,992.1242 248.1615,993.0774 Q247.8646,994.0305 247.8646,995.2961 Q247.8646,997.3117 248.5834,998.2805 Q249.3021,999.2336 250.8959,999.2336 Q251.4896,999.2336 252.1146,999.0774 Q252.7396,998.9211 253.5678,998.5461 L253.5678,1000.7649 Q252.8334,1001.0774 252.0365,1001.2336 Q251.2553,1001.3899 250.4896,1001.3899 Z " fill="#000000"/><text fill="#000000" font-family="sans-serif" font-size="12" font-style="italic" lengthAdjust="spacing" textLength="121.0568" x="269.5209" y="989.5901">&#171;Static polymorphism&#187;</text><text fill="#000000" font-family="sans-serif" font-size="14" lengthAdjust="spacing" textLength="96.7116" x="281.6935" y="1008.072">handler_frame</text><rect fill="#FFFFFF" height="18.3441" style="stroke:#181818;stroke-width:1;stroke-dasharray:2.0,2.0;" width="42.4043" x="456.5686" y="968.762"/><text fill="#000000" font-family="sans-serif" font-size="12" font-style="italic" lengthAdjust="spacing" textLength="40.4043" x="457.5686" y="982.5901">Derived</text><line style="stroke:#181818;stroke-width:0.5;" x1="177.03" x2="494.9729" y1="1017.174" y2="1017.174"/><ellipse cx="187.03" cy="1032.208" fill="#84BE84" rx="3" ry="3" style="stroke:#038048;stroke-width:1;"/><text fill="#000000" font-family="sans-serif" font-size="14" lengthAdjust="spacing" textLength="152.8514" x="196.03" y="1036.1399">process(data_view) : int</text><ellipse cx="187.03" cy="1051.2759" fill="#84BE84" rx="3" ry="3" style="stroke:#038048;stroke-width:1;"/><text fill="#000000" font-family="sans-serif" font-size="14" lengthAdjust="spacing" textLength="236.445" x="196.03" y="1055.2079">on_connection_init(connection_info)</text><ellipse cx="187.03" cy="1070.3438" fill="#84BE84" rx="3" ry="3" style="stroke:#038048;stroke-width:1;"/><text fill="#000000" font-family="sans-serif" font-size="14" lengthAdjust="spacing" textLength="293.9429" x="196.03" y="1074.2758">on_error(boost::error_code, connection_info)</text><ellipse cx="187.03" cy="1089.4117" fill="#84BE84" rx="3" ry="3" style="stroke:#038048;stroke-width:1;"/><text fill="#000000" font-family="sans-serif" font-size="14" lengthAdjust="spacing" textLength="281.4129" x="196.03" y="1093.3437">on_error(nova::exception, connection_info)</text><rect fill="none" height="6" style="stroke:#C82930;stroke-width:1;" width="6" x="184.03" y="1105.4796"/><text fill="#000000" font-family="sans-serif" font-size="14" lengthAdjust="spacing" textLength="99.4837" x="196.03" y="1112.4116">stats : statistics</text><polygon fill="#FFFF44" points="187.03,1145.6155,191.03,1149.6155,187.03,1153.6155,183.03,1149.6155" style="stroke:#B38D22;stroke-width:1;"/><text fill="#000000" font-family="sans-serif" font-size="14" lengthAdjust="spacing" textLength="87.0237" x="196.03" y="1154.5474">n_bytes() : int</text><polygon fill="#FFFF44" points="187.03,1164.6834,191.03,1168.6834,187.03,1172.6834,183.03,1168.6834" style="stroke:#B38D22;stroke-width:1;"/><text fill="#000000" font-family="sans-serif" font-size="14" lengthAdjust="spacing" textLength="117.0815" x="196.03" y="1173.6154">n_messages() : int</text><polygon fill="#FFFF44" points="187.03,1183.7513,191.03,1187.7513,187.03,1191.7513,183.03,1187.7513" style="stroke:#B38D22;stroke-width:1;"/><text fill="#000000" font-family="sans-serif" font-size="14" lengthAdjust="spacing" textLength="153.7334" x="196.03" y="1192.6833">uptime() : nanoseconds</text><polygon fill="none" points="187.03,1202.8192,191.03,1206.8192,187.03,1210.8192,183.03,1206.8192" style="stroke:#B38D22;stroke-width:1;"/><text fill="#000000" font-family="sans-serif" font-size="14" lengthAdjust="spacing" textLength="141.4415" x="196.03" y="1211.7512">perf_summary: string</text><line style="stroke:#181818;stroke-width:1;stroke-dasharray:1.0,2.0;" x1="177.03" x2="302.2896" y1="1130.0476" y2="1130.0476"/><text fill="#000000" font-family="sans-serif" font-size="14" lengthAdjust="spacing" textLength="67.4238" x="302.2896" y="1134.9795">Observers</text><line style="stroke:#181818;stroke-width:1;stroke-dasharray:1.0,2.0;" x1="369.7133" x2="494.9729" y1="1130.0476" y2="1130.0476"/><rect fill="#F24D5C" height="6" style="stroke:#C82930;stroke-width:1;" width="6" x="184.03" y="1246.9551"/><text fill="#000000" font-family="sans-serif" font-size="14" font-style="italic" lengthAdjust="spacing" textLength="165.2974" x="196.03" y="1253.887">do_process(data_view) : int</text><rect fill="#F24D5C" height="6" style="stroke:#C82930;stroke-width:1;" width="6" x="184.03" y="1266.023"/><text fill="#000000" font-family="sans-serif" font-size="14" font-style="italic" lengthAdjust="spacing" textLength="48.9578" x="196.03" y="1272.955">do_eof()</text><line style="stroke:#181818;stroke-width:0.5;" x1="177.03" x2="272.3157" y1="1229.3871" y2="1229.3871"/><text fill="#000000" font-family="sans-serif" font-size="14" lengthAdjust="spacing" textLength="127.3715" x="272.3157" y="1234.3191">External definitions</text><line style="stroke:#181818;stroke-width:0.5;" x1="399.6872" x2="494.9729" y1="1229.3871" y2="1229.3871"/></g><!--reverse link handler to handler_frame--><g class="link" data-entity-1="handler" data-entity-2="handler_frame" data-source-line="61" data-uid="lnk12" id="link_handler_handler_frame"><path d="M336,903.052 C336,928.302 336,940.782 336,971.422" fill="none" id="handler-backto-handler_frame" style="stroke:#181818;stroke-width:1;"/><polygon fill="none" points="336,885.052,330,903.052,342,903.052,336,885.052" style="stroke:#181818;stroke-width:1;"/></g><!--link handler_factory to handler--><g class="link" data-entity-1="handler_factory" data-entity-2="handler" data-source-line="76" data-uid="lnk13" id="link_handler_factory_handler"><path codeLine="76" d="M226.35,569.522 C246.55,615.982 281.3767,696.05 306.7967,754.49" fill="none" id="handler_factory-to-handler" style="stroke:#181818;stroke-width:1;"/><polygon fill="#181818" points="309.19,759.992,309.2681,750.1434,307.1956,755.407,301.9321,753.3344,309.19,759.992" style="stroke:#181818;stroke-width:1;"/><text fill="#000000" font-family="sans-serif" font-size="13" lengthAdjust="spacing" textLength="44.486" x="296.89" y="726.379">creates</text><text fill="#000000" font-family="sans-serif" font-size="13" lengthAdjust="spacing" textLength="7.436" x="221.3219" y="591.0479">1</text><text fill="#000000" font-family="sans-serif" font-size="13" lengthAdjust="spacing" textLength="34.112" x="270.1308" y="748.7059">many</text></g><!--reverse link net_config to server--><g class="link" data-entity-1="net_config" data-entity-2="server" data-source-line="78" data-uid="lnk15" id="link_net_config_server"><path codeLine="78" d="M282.355,138.0281 C297.915,114.0381 318.04,94.102 348,94.102" fill="none" id="net_config-backto-server" style="stroke:#181818;stroke-width:1;"/><polygon fill="#181818" points="279.09,143.062,287.3434,137.6878,281.8108,138.8671,280.6316,133.3345,279.09,143.062" style="stroke:#181818;stroke-width:1;"/></g><!--reverse link connection_info to handler--><g class="link" data-entity-1="connection_info" data-entity-2="handler" data-source-line="79" data-uid="lnk17" id="link_connection_info_handler"><path codeLine="79" d="M164.71,822.622 C176.02,822.622 181.33,822.622 192.64,822.622" fill="none" id="connection_info-backto-handler" style="stroke:#181818;stroke-width:1;"/><polygon fill="#181818" points="158.71,822.622,167.71,826.622,163.71,822.622,167.71,818.622,158.71,822.622" style="stroke:#181818;stroke-width:1;"/></g><!--reverse link server to handler_factory--><g class="link" data-entity-1="server" data-entity-2="handler_factory" data-source-line="81" data-uid="lnk18" id="link_server_handler_factory"><path codeLine="81" d="M334.1513,330.9581 C317.8913,353.4581 308.65,367.082 294,389.602 C269.72,426.922 244.98,471.792 229.12,501.622" fill="none" id="server-backto-handler_factory" style="stroke:#181818;stroke-width:1;"/><polygon fill="none" points="341.18,321.232,334.4236,323.7521,334.1513,330.9581,340.9077,328.4379,341.18,321.232" style="stroke:#181818;stroke-width:1;"/></g><!--link server to server_metrics--><g class="link" data-entity-1="server" data-entity-2="server_metrics" data-source-line="82" data-uid="lnk19" id="link_server_server_metrics"><path codeLine="82" d="M553.8368,310.098 C573.1568,337.488 583.61,358.192 594,389.602 C637.88,522.302 611.8008,684.7247 593.6208,766.5847" fill="none" id="server-server_metrics" style="stroke:#181818;stroke-width:1;"/><polygon fill="#181818" points="546.92,300.292,547.1097,307.5006,553.8368,310.098,553.6471,302.8894,546.92,300.292" style="stroke:#181818;stroke-width:1;"/><polygon fill="#181818" points="592.32,772.442,598.1761,764.5233,593.404,767.5609,590.3664,762.7888,592.32,772.442" style="stroke:#181818;stroke-width:1;"/><text fill="#000000" font-family="sans-serif" font-size="13" lengthAdjust="spacing" textLength="7.436" x="547.4186" y="297.6818">1</text><text fill="#000000" font-family="sans-serif" font-size="13" lengthAdjust="spacing" textLength="7.436" x="586.5909" y="761.1362">1</text></g><!--link connection to server_metrics--><g class="link" data-entity-1="connection" data-entity-2="server_metrics" data-source-line="83" data-uid="lnk20" id="link_connection_server_metrics"><path codeLine="83" d="M518.3658,692.4232 C533.9758,725.1532 541.7675,741.4662 553.9175,766.9462" fill="none" id="connection-server_metrics" style="stroke:#181818;stroke-width:1;"/><polygon fill="none" points="513.2,681.592,512.1725,688.7295,518.3658,692.4232,519.3933,685.2857,513.2,681.592" style="stroke:#181818;stroke-width:1;"/><polygon fill="#181818" points="556.5,772.362,556.2368,762.5166,554.3479,767.8488,549.0157,765.96,556.5,772.362" style="stroke:#181818;stroke-width:1;"/><text fill="#000000" font-family="sans-serif" font-size="13" lengthAdjust="spacing" textLength="7.436" x="509.5989" y="703.4761">1</text><text fill="#000000" font-family="sans-serif" font-size="13" lengthAdjust="spacing" textLength="7.436" x="545.7337" y="761.045">1</text></g><!--link server to connection--><g class="link" data-entity-1="server" data-entity-2="connection" data-source-line="85" data-uid="lnk21" id="link_server_connection"><path codeLine="85" d="M444,340.212 C444,360.312 444,363.022 444,383.212" fill="none" id="server-connection" style="stroke:#181818;stroke-width:1;"/><polygon fill="#181818" points="444,328.212,440,334.212,444,340.212,448,334.212,444,328.212" style="stroke:#181818;stroke-width:1;"/><polygon fill="#181818" points="444,389.212,448,380.212,444,384.212,440,380.212,444,389.212" style="stroke:#181818;stroke-width:1;"/><text fill="#000000" font-family="sans-serif" font-size="13" lengthAdjust="spacing" textLength="7.436" x="436.8723" y="347.5016">1</text><text fill="#000000" font-family="sans-serif" font-size="13" lengthAdjust="spacing" textLength="34.112" x="409.0733" y="377.661">many</text></g><!--reverse link connection to handler--><g class="link" data-entity-1="connection" data-entity-2="handler" data-source-line="86" data-uid="lnk22" id="link_connection_handler"><path codeLine="86" d="M384.7992,692.8139 C374.3292,720.4539 368.15,736.752 359.35,759.992" fill="none" id="connection-backto-handler" style="stroke:#181818;stroke-width:1;"/><polygon fill="none" points="389.05,681.592,383.184,685.786,384.7992,692.8139,390.6652,688.6199,389.05,681.592" style="stroke:#181818;stroke-width:1;"/><text fill="#000000" font-family="sans-serif" font-size="13" lengthAdjust="spacing" textLength="7.436" x="379.0474" y="703.4761">1</text><text fill="#000000" font-family="sans-serif" font-size="13" lengthAdjust="spacing" textLength="7.436" x="354.6702" y="748.7059">1</text></g><!--SRC=[bLHDZzem4BtdLrZi9JG4gLU4EBN7geUzLh8SPmBM9dPa3-oY5Vtj7SSE2I5iTxa4pyVplEUPSMYF4XdATgq1kJIwKdlsdZ3w7Op33NDebTvtXjPOCYYDoIL9t93fm9x0yWOeL3gstGeqZPAxNGJI7bU3H6Mq2m3UN1oh2kmSu13EbQvCX15bQS6vnoNH1smb97GW1w7B6cnCVXS5fGc95zPQ8madBGKAVbBmkcH3KQCuCwwR2b6OJWfRpgI0jSQcXV7YRRe3ePImOf_ErUOaAFLDGkkZPp8VSULaG6FFzvob1O6GUgOnzY58aiXQE3TwsGYNXLCwDCeoYGuK5jDbVp3jzJzW6ciAbbn8JolwrslskmYeZWuXnpzfEdwIB3PMPxpjjSxFEVi5JU4nE0-tz3fSsVRA17VVgNTmbp7vGVPUWC6IEYDV05Sz_ef5Y4ZypzzHxAnCiZOE1frqEUh749y7R7w3z81mAES_x3hlf9d6Dzc1V-b6JML50ziVODK9oXsDzpCAL99chputnhO7vHgQTNX3Ok5cPY_xSEAopyvPzkNfohumKq56OjO9vnawx4MRwzCdpOipWhjfLJ8sH5Jif_OZNTk4-TD2qylJ_MK0Vsff1haxDesmvvlbHk_yaqIrMjIiXCehupVezT57yrqQ_g78arWmLTgjaRdbiVY-O7c-Ouj6wFFYvZqtSP4uMjUT79jDN15v3HLIqh0SaZwfTqqxBq8ma-TtOnfTlfHlNItqPzBDe_7qNlCWx1ugq1hIPv2wRpyK_m00]--></g></svg>